<svg xmlns="http://www.w3.org/2000/svg" baseProfile="full" viewBox="-5 -5 864 214"><g font-size="16" font-family="monospace, monospace"><path fill="#2C4039" d="M-5-7h864v219H-5z"/><rect rx="10" ry="10" x="-2" y="-2" width="858" height="208"/><rect rx="10" ry="10" x="-2" y="-2" width="858" height="208" fill="#17221E"/><g font-weight="bold" fill="#FFF"><text x="2" y="17">$</text><text x="22" y="17">s</text><text x="32" y="17">u</text><text x="42" y="17">m</text><text x="52" y="17">m</text><text x="62" y="17">e</text><text x="72" y="17">r</text></g><path fill="#17221E" d="M2 22h600v20H2zm600 0h250v20H602z"/><g fill="#A883AE"><text x="602" y="37">/</text><text x="612" y="37">h</text><text x="622" y="37">o</text><text x="632" y="37">m</text><text x="642" y="37">e</text><text x="652" y="37">/</text><text x="662" y="37">m</text><text x="672" y="37">e</text><text x="682" y="37">/</text><text x="692" y="37">c</text><text x="702" y="37">o</text><text x="712" y="37">d</text><text x="722" y="37">e</text><text x="732" y="37">/</text><text x="742" y="37">a</text><text x="752" y="37">w</text><text x="762" y="37">e</text><text x="772" y="37">s</text><text x="782" y="37">o</text><text x="792" y="37">m</text><text x="802" y="37">e</text><text x="812" y="37">-</text><text x="822" y="37">a</text><text x="832" y="37">p</text><text x="842" y="37">p</text></g><path fill="#17221E" d="M2 42h70v20H2zm70 0h40v20H72z"/><g fill="#44DCDF"><text x="72" y="57">D</text><text x="82" y="57">i</text><text x="92" y="57">r</text><text x="102" y="57">s</text></g><path stroke="#44DCDF" d="M72 58h40"/><path fill="#17221E" d="M112 42h50v20h-50zm50 0h40v20h-40z"/><g fill="#44DCDF"><text x="162" y="57">T</text><text x="172" y="57">e</text><text x="182" y="57">x</text><text x="192" y="57">t</text></g><path stroke="#44DCDF" d="M162 58h40"/><path fill="#17221E" d="M202 42h120v20H202zm120 0h50v20h-50z"/><g fill="#44DCDF"><text x="322" y="57">M</text><text x="332" y="57">e</text><text x="342" y="57">d</text><text x="352" y="57">i</text><text x="362" y="57">a</text></g><path stroke="#44DCDF" d="M322 58h50"/><path fill="#17221E" d="M372 42h90v20h-90zm90 0h60v20h-60z"/><g fill="#44DCDF"><text x="462" y="57">O</text><text x="472" y="57">t</text><text x="482" y="57">h</text><text x="492" y="57">e</text><text x="502" y="57">r</text><text x="512" y="57">s</text></g><path stroke="#44DCDF" d="M462 58h60"/><path fill="#17221E" d="M522 42h170v20H522zm170 0h10v20h-10z"/><text x="692" y="57" fill="#F77">4</text><path fill="#17221E" d="M702 42h150v20H702z"/><g fill="#FFF"><text x="712" y="57">d</text><text x="722" y="57">i</text><text x="732" y="57">r</text><text x="742" y="57">e</text><text x="752" y="57">c</text><text x="762" y="57">t</text><text x="772" y="57">o</text><text x="782" y="57">r</text><text x="792" y="57">i</text><text x="802" y="57">e</text><text x="812" y="57">s</text></g><path fill="#17221E" d="M2 62h70v20H2z"/><g fill="#FFF"><text x="12" y="77">2</text><text x="22" y="77">4</text><text x="32" y="77">K</text><text x="52" y="77">📁</text></g><path fill="#17221E" d="M72 62h40v20H72z"/><g fill="#558"><text x="72" y="77">.</text><text x="82" y="77">g</text><text x="92" y="77">i</text><text x="102" y="77">t</text></g><path fill="#17221E" d="M112 62h350v20H112z"/><g fill="#FFF"><text x="162" y="77">C</text><text x="172" y="77">H</text><text x="182" y="77">A</text><text x="192" y="77">N</text><text x="202" y="77">G</text><text x="212" y="77">E</text><text x="222" y="77">L</text><text x="232" y="77">O</text><text x="242" y="77">G</text><text x="252" y="77">.</text><text x="262" y="77">m</text><text x="272" y="77">d</text><text x="322" y="77">d</text><text x="332" y="77">e</text><text x="342" y="77">m</text><text x="352" y="77">o</text><text x="362" y="77">.</text><text x="372" y="77">o</text><text x="382" y="77">g</text><text x="392" y="77">v</text></g><path fill="#17221E" d="M462 62h130v20H462z"/><g fill="#999"><text x="462" y="77">.</text><text x="472" y="77">e</text><text x="482" y="77">d</text><text x="492" y="77">i</text><text x="502" y="77">t</text><text x="512" y="77">o</text><text x="522" y="77">r</text><text x="532" y="77">c</text><text x="542" y="77">o</text><text x="552" y="77">n</text><text x="562" y="77">f</text><text x="572" y="77">i</text><text x="582" y="77">g</text></g><path fill="#17221E" d="M592 62h100v20H592zm100 0h40v20h-40z"/><g fill="#F77"><text x="692" y="77">2</text><text x="702" y="77">5</text><text x="712" y="77">7</text><text x="722" y="77">K</text></g><path fill="#17221E" d="M732 62h40v20h-40z"/><g fill="#FFF"><text x="742" y="77">i</text><text x="752" y="77">n</text></g><path fill="#17221E" d="M772 62h20v20h-20z"/><g fill="#F77"><text x="772" y="77">1</text><text x="782" y="77">0</text></g><path fill="#17221E" d="M792 62h60v20h-60z"/><g fill="#FFF"><text x="802" y="77">f</text><text x="812" y="77">i</text><text x="822" y="77">l</text><text x="832" y="77">e</text><text x="842" y="77">s</text></g><path fill="#17221E" d="M2 82h70v20H2z"/><g fill="#FFF"><text x="12" y="97">2</text><text x="22" y="97">8</text><text x="32" y="97">K</text><text x="52" y="97">📁</text></g><path fill="#17221E" d="M72 82h20v20H72z"/><g fill="#77F"><text x="72" y="97">c</text><text x="82" y="97">i</text></g><path fill="#17221E" d="M92 82h370v20H92z"/><g fill="#FFF"><text x="162" y="97">L</text><text x="172" y="97">I</text><text x="182" y="97">C</text><text x="192" y="97">E</text><text x="202" y="97">N</text><text x="212" y="97">S</text><text x="222" y="97">E</text><text x="322" y="97">l</text><text x="332" y="97">o</text><text x="342" y="97">g</text><text x="352" y="97">o</text><text x="362" y="97">.</text><text x="372" y="97">p</text><text x="382" y="97">n</text><text x="392" y="97">g</text></g><path fill="#17221E" d="M462 82h100v20H462z"/><g fill="#999"><text x="462" y="97">.</text><text x="472" y="97">g</text><text x="482" y="97">i</text><text x="492" y="97">t</text><text x="502" y="97">i</text><text x="512" y="97">g</text><text x="522" y="97">n</text><text x="532" y="97">o</text><text x="542" y="97">r</text><text x="552" y="97">e</text></g><path fill="#17221E" d="M562 82h130v20H562zm130 0h10v20h-10z"/><text x="692" y="97" fill="#F77">3</text><path fill="#17221E" d="M702 82h150v20H702z"/><g fill="#FFF"><text x="712" y="97">h</text><text x="722" y="97">i</text><text x="732" y="97">d</text><text x="742" y="97">d</text><text x="752" y="97">e</text><text x="762" y="97">n</text></g><path fill="#17221E" d="M2 102h70v20H2z"/><g fill="#FFF"><text x="2" y="117">1</text><text x="12" y="117">7</text><text x="22" y="117">0</text><text x="32" y="117">K</text><text x="52" y="117">📁</text></g><path fill="#17221E" d="M72 102h30v20H72z"/><g fill="#77F"><text x="72" y="117">s</text><text x="82" y="117">r</text><text x="92" y="117">c</text></g><path fill="#17221E" d="M102 102h750v20H102z"/><g fill="#FFF"><text x="162" y="117">R</text><text x="172" y="117">E</text><text x="182" y="117">A</text><text x="192" y="117">D</text><text x="202" y="117">M</text><text x="212" y="117">E</text><text x="222" y="117">.</text><text x="232" y="117">m</text><text x="242" y="117">d</text><text x="462" y="117">M</text><text x="472" y="117">a</text><text x="482" y="117">k</text><text x="492" y="117">e</text><text x="502" y="117">f</text><text x="512" y="117">i</text><text x="522" y="117">l</text><text x="532" y="117">e</text></g><path fill="#17221E" d="M2 122h70v20H2z"/><g fill="#FFF"><text x="22" y="137">7</text><text x="32" y="137">M</text><text x="52" y="137">📁</text></g><path fill="#17221E" d="M72 122h50v20H72z"/><g fill="#77F"><text x="72" y="137">t</text><text x="82" y="137">e</text><text x="92" y="137">s</text><text x="102" y="137">t</text><text x="112" y="137">s</text></g><path fill="#17221E" d="M122 122h340v20H122z"/><text x="442" y="137" fill="#FFF">💡</text><path fill="#17221E" d="M462 122h80v20h-80z"/><g fill="#7F7"><text x="462" y="137">b</text><text x="472" y="137">u</text><text x="482" y="137">i</text><text x="492" y="137">l</text><text x="502" y="137">d</text><text x="512" y="137">.</text><text x="522" y="137">s</text><text x="532" y="137">h</text></g><path fill="#17221E" d="M542 122h150v20H542zm150 0h10v20h-10z"/><text x="692" y="137" fill="#F77">2</text><path fill="#17221E" d="M702 122h150v20H702z"/><g fill="#FFF"><text x="712" y="137">m</text><text x="722" y="137">e</text><text x="732" y="137">d</text><text x="742" y="137">i</text><text x="752" y="137">a</text><text x="772" y="137">f</text><text x="782" y="137">i</text><text x="792" y="137">l</text><text x="802" y="137">e</text><text x="812" y="137">s</text></g><path fill="#17221E" d="M2 142h460v20H2z"/><text x="442" y="157" fill="#FFF">💡</text><path fill="#17221E" d="M462 142h90v20h-90z"/><g fill="#7F7"><text x="462" y="157">d</text><text x="472" y="157">e</text><text x="482" y="157">p</text><text x="492" y="157">l</text><text x="502" y="157">o</text><text x="512" y="157">y</text><text x="522" y="157">.</text><text x="532" y="157">s</text><text x="542" y="157">h</text></g><path fill="#17221E" d="M552 142h140v20H552zm140 0h10v20h-10z"/><text x="692" y="157" fill="#F77">2</text><path fill="#17221E" d="M702 142h150v20H702z"/><g fill="#FFF"><text x="712" y="157">t</text><text x="722" y="157">e</text><text x="732" y="157">x</text><text x="742" y="157">t</text><text x="762" y="157">f</text><text x="772" y="157">i</text><text x="782" y="157">l</text><text x="792" y="157">e</text><text x="802" y="157">s</text></g></g></svg>